<svg width="26" height="30" viewBox="0 0 26 30" fill="none" xmlns="http://www.w3.org/2000/svg">
<g clip-path="url(#clip0_870_40)">
<path d="M13.0002 0C11.9729 0 11.143 0.837891 11.143 1.875V3C6.90642 3.86719 3.71445 7.65234 3.71445 12.1875V13.6758C3.71445 16.3359 2.8149 18.9199 1.17249 20.9941L0.307756 22.0898C-0.0288508 22.5117 -0.09269 23.0918 0.139453 23.5781C0.371596 24.0645 0.859096 24.375 1.39302 24.375H24.6073C25.1412 24.375 25.6287 24.0645 25.8609 23.5781C26.093 23.0918 26.0292 22.5117 25.6926 22.0898L24.8278 21C23.1854 18.9199 22.2859 16.3359 22.2859 13.6758V12.1875C22.2859 7.65234 19.0939 3.86719 14.8573 3V1.875C14.8573 0.837891 14.0274 0 13.0002 0ZM13.0002 5.625C16.5926 5.625 19.5002 8.56055 19.5002 12.1875V13.6758C19.5002 16.4824 20.3069 19.2188 21.8042 21.5625H4.19615C5.69347 19.2188 6.50017 16.4824 6.50017 13.6758V12.1875C6.50017 8.56055 9.40776 5.625 13.0002 5.625ZM16.7145 26.25H13.0002H9.28588C9.28588 27.2461 9.67472 28.2012 10.3711 28.9043C11.0676 29.6074 12.0136 30 13.0002 30C13.9868 30 14.9328 29.6074 15.6292 28.9043C16.3256 28.2012 16.7145 27.2461 16.7145 26.25Z" fill="white"/>
</g>
<defs>
<clipPath id="clip0_870_40">
<rect width="26" height="30" fill="white"/>
</clipPath>
</defs>
</svg>
