<svg width="26" height="23" viewBox="0 0 26 23" fill="none" xmlns="http://www.w3.org/2000/svg">
<g clip-path="url(#clip0_925_3)">
<path d="M25.991 11.4775C25.991 12.2861 25.3139 12.9195 24.5465 12.9195H23.1021L23.1337 20.116C23.1337 20.2373 23.1247 20.3586 23.1111 20.4799V21.2076C23.1111 22.2004 22.3031 23.0045 21.3056 23.0045H20.5833C20.5337 23.0045 20.484 23.0045 20.4344 23C20.3712 23.0045 20.308 23.0045 20.2448 23.0045L18.7778 23H17.6944C16.6969 23 15.8889 22.1959 15.8889 21.2031V20.125V17.25C15.8889 16.4549 15.2434 15.8125 14.4444 15.8125H11.5556C10.7566 15.8125 10.1111 16.4549 10.1111 17.25V20.125V21.2031C10.1111 22.1959 9.30313 23 8.30556 23H7.22222H5.78229C5.71459 23 5.64688 22.9955 5.57917 22.991C5.525 22.9955 5.47084 23 5.41667 23H4.69445C3.69688 23 2.88889 22.1959 2.88889 21.2031V16.1719C2.88889 16.1314 2.88889 16.0865 2.89341 16.0461V12.915H1.44896C0.636461 12.915 0.0045166 12.2861 0.0045166 11.473C0.0045166 11.0687 0.139933 10.7094 0.455905 10.3949L12.025 0.359375C12.341 0.0449219 12.7021 0 13.0181 0C13.334 0 13.6951 0.0898437 13.966 0.314453L25.4944 10.3994C25.8556 10.7139 26.0361 11.0732 25.991 11.4775Z" fill="white"/>
</g>
<defs>
<clipPath id="clip0_925_3">
<rect width="26" height="23" fill="white"/>
</clipPath>
</defs>
</svg>
