<svg width="26" height="23" viewBox="0 0 26 23" fill="none" xmlns="http://www.w3.org/2000/svg">
<path d="M2.88889 2.875C1.29549 2.875 0 4.16426 0 5.75V8.625C0 9.02031 0.334028 9.33027 0.708681 9.46055C1.55729 9.75254 2.16667 10.5566 2.16667 11.5C2.16667 12.4434 1.55729 13.2475 0.708681 13.5395C0.334028 13.6697 0 13.9797 0 14.375V17.25C0 18.8357 1.29549 20.125 2.88889 20.125H23.1111C24.7045 20.125 26 18.8357 26 17.25V14.375C26 13.9797 25.666 13.6697 25.2913 13.5395C24.4427 13.2475 23.8333 12.4434 23.8333 11.5C23.8333 10.5566 24.4427 9.75254 25.2913 9.46055C25.666 9.33027 26 9.02031 26 8.625V5.75C26 4.16426 24.7045 2.875 23.1111 2.875H2.88889ZM5.77778 7.90625V15.0938C5.77778 15.4891 6.10278 15.8125 6.5 15.8125H19.5C19.8972 15.8125 20.2222 15.4891 20.2222 15.0938V7.90625C20.2222 7.51094 19.8972 7.1875 19.5 7.1875H6.5C6.10278 7.1875 5.77778 7.51094 5.77778 7.90625ZM4.33333 7.1875C4.33333 6.39238 4.97882 5.75 5.77778 5.75H20.2222C21.0212 5.75 21.6667 6.39238 21.6667 7.1875V15.8125C21.6667 16.6076 21.0212 17.25 20.2222 17.25H5.77778C4.97882 17.25 4.33333 16.6076 4.33333 15.8125V7.1875Z" fill="white"/>
</svg>
