<svg width="26" height="26" viewBox="0 0 26 26" fill="none" xmlns="http://www.w3.org/2000/svg">
<g clip-path="url(#clip0_870_43)">
<path d="M25.1825 8.46016C25.345 8.90195 25.2079 9.39453 24.8575 9.70937L22.6587 11.7102C22.7145 12.1316 22.745 12.5633 22.745 13C22.745 13.4367 22.7145 13.8684 22.6587 14.2898L24.8575 16.2906C25.2079 16.6055 25.345 17.098 25.1825 17.5398C24.959 18.1441 24.6899 18.723 24.3801 19.2816L24.1415 19.693C23.8063 20.2516 23.4305 20.7797 23.0192 21.2773C22.7196 21.643 22.2219 21.7648 21.7751 21.6227L18.9465 20.7238C18.2661 21.2469 17.5145 21.6836 16.7122 22.0137L16.0774 24.9133C15.9758 25.3754 15.6204 25.741 15.1532 25.8172C14.4524 25.934 13.7313 25.9949 12.995 25.9949C12.2587 25.9949 11.5376 25.934 10.8368 25.8172C10.3696 25.741 10.0141 25.3754 9.91256 24.9133L9.2778 22.0137C8.47545 21.6836 7.72389 21.2469 7.04342 20.7238L4.21998 21.6277C3.77311 21.7699 3.27545 21.643 2.97584 21.2824C2.56451 20.7848 2.18873 20.2566 1.85358 19.698L1.61491 19.2867C1.30514 18.7281 1.036 18.1492 0.812562 17.5449C0.650062 17.1031 0.787171 16.6105 1.13756 16.2957L3.33639 14.2949C3.28053 13.8684 3.25006 13.4367 3.25006 13C3.25006 12.5633 3.28053 12.1316 3.33639 11.7102L1.13756 9.70937C0.787171 9.39453 0.650062 8.90195 0.812562 8.46016C1.036 7.85586 1.30514 7.27695 1.61491 6.71836L1.85358 6.30703C2.18873 5.74844 2.56451 5.22031 2.97584 4.72266C3.27545 4.35703 3.77311 4.23516 4.21998 4.37734L7.0485 5.27617C7.72897 4.75313 8.48053 4.31641 9.28287 3.98633L9.91764 1.08672C10.0192 0.624609 10.3747 0.258984 10.8419 0.182812C11.5426 0.0609375 12.2637 0 13.0001 0C13.7364 0 14.4575 0.0609375 15.1583 0.177734C15.6255 0.253906 15.9809 0.619531 16.0825 1.08164L16.7173 3.98125C17.5196 4.31133 18.2712 4.74805 18.9516 5.27109L21.7801 4.37227C22.227 4.23008 22.7247 4.35703 23.0243 4.71758C23.4356 5.21523 23.8114 5.74336 24.1465 6.30195L24.3852 6.71328C24.695 7.27187 24.9641 7.85078 25.1876 8.45508L25.1825 8.46016ZM13.0001 17.0625C14.0775 17.0625 15.1108 16.6345 15.8727 15.8726C16.6346 15.1108 17.0626 14.0774 17.0626 13C17.0626 11.9226 16.6346 10.8892 15.8727 10.1274C15.1108 9.36551 14.0775 8.9375 13.0001 8.9375C11.9226 8.9375 10.8893 9.36551 10.1274 10.1274C9.36557 10.8892 8.93756 11.9226 8.93756 13C8.93756 14.0774 9.36557 15.1108 10.1274 15.8726C10.8893 16.6345 11.9226 17.0625 13.0001 17.0625Z" fill="white"/>
</g>
<defs>
<clipPath id="clip0_870_43">
<rect width="26" height="26" fill="white"/>
</clipPath>
</defs>
</svg>
