<svg width="26" height="23" viewBox="0 0 26 23" fill="none" xmlns="http://www.w3.org/2000/svg">
<path d="M0 4.3125H26C26 2.72676 24.7045 1.4375 23.1111 1.4375H2.88889C1.29549 1.4375 0 2.72676 0 4.3125ZM0 5.75V18.6875C0 20.2732 1.29549 21.5625 2.88889 21.5625H23.1111C24.7045 21.5625 26 20.2732 26 18.6875V5.75H0ZM2.88889 18.2068C2.88889 16.8816 3.96771 15.8125 5.29479 15.8125H10.5896C11.9212 15.8125 12.9955 16.8861 12.9955 18.2068C12.9955 18.4719 12.7788 18.6875 12.5125 18.6875H3.37187C3.10556 18.6875 2.88889 18.4719 2.88889 18.2068ZM7.94444 8.625C8.71063 8.625 9.44543 8.9279 9.9872 9.46707C10.529 10.0062 10.8333 10.7375 10.8333 11.5C10.8333 12.2625 10.529 12.9938 9.9872 13.5329C9.44543 14.0721 8.71063 14.375 7.94444 14.375C7.17826 14.375 6.44346 14.0721 5.90169 13.5329C5.35992 12.9938 5.05556 12.2625 5.05556 11.5C5.05556 10.7375 5.35992 10.0062 5.90169 9.46707C6.44346 8.9279 7.17826 8.625 7.94444 8.625ZM15.8889 9.34375C15.8889 8.94844 16.2139 8.625 16.6111 8.625H22.3889C22.7861 8.625 23.1111 8.94844 23.1111 9.34375C23.1111 9.73906 22.7861 10.0625 22.3889 10.0625H16.6111C16.2139 10.0625 15.8889 9.73906 15.8889 9.34375ZM15.8889 12.2188C15.8889 11.8234 16.2139 11.5 16.6111 11.5H22.3889C22.7861 11.5 23.1111 11.8234 23.1111 12.2188C23.1111 12.6141 22.7861 12.9375 22.3889 12.9375H16.6111C16.2139 12.9375 15.8889 12.6141 15.8889 12.2188ZM15.8889 15.0938C15.8889 14.6984 16.2139 14.375 16.6111 14.375H22.3889C22.7861 14.375 23.1111 14.6984 23.1111 15.0938C23.1111 15.4891 22.7861 15.8125 22.3889 15.8125H16.6111C16.2139 15.8125 15.8889 15.4891 15.8889 15.0938Z" fill="white"/>
</svg>
